<svg width="432" height="376" viewBox="0 0 432 376" fill="none" xmlns="http://www.w3.org/2000/svg">
<path d="M138.997 0.307768C127.216 2.01431 114.704 14.8834 107.579 32.5923C104.83 39.3905 103.007 46.4405 101.941 54.4137C101.239 59.5334 101.239 70.5839 101.913 75.9554C103.259 86.3625 106.12 96.2661 110.497 105.778C111.366 107.708 112.572 108.967 113.807 109.275C115.125 109.611 124.354 109.135 128.057 108.576C134.762 107.513 141.887 105.526 148.956 102.757C155.772 100.071 165.058 95.2869 165.506 94.1958C165.647 93.8601 166.404 92.0976 167.19 90.2512C167.947 88.4328 168.592 86.8381 168.592 86.6982C168.592 86.5583 167.358 87.2578 165.871 88.2369C159.223 92.4893 150.919 96.6018 144.019 99.0357C140.821 100.155 141.27 99.7351 144.86 98.1964C152.434 95.0072 161.271 89.7756 168.199 84.3762C170.724 82.4179 170.808 82.3339 172.94 78.4732C178.242 68.9333 184.694 60.2607 192.52 52.1476C195.354 49.2101 195.803 48.5947 196.195 47.2518C197.71 41.9363 197.991 36.1173 196.953 32.3125C196.111 29.3191 195.157 27.6125 193.11 25.5703C190.248 22.7167 186.405 21.2899 181.468 21.2619C175.409 21.2619 169.826 23.1363 162.842 27.5286C159.026 29.9345 156.277 30.4941 153.865 29.403C151.509 28.3399 150.134 26.1857 149.405 22.381C148.451 17.625 146.151 14.2959 142.532 12.5054C140.793 11.6661 140.512 11.6101 137.595 11.6101C134.172 11.6101 132.77 11.9459 129.544 13.5685C126.935 14.8834 124.859 16.45 121.633 19.5554C118.519 22.5488 118.491 22.4929 121.24 18.828C127.608 10.2953 135.435 5.3155 142.392 5.3155C148.619 5.3155 153.416 9.56788 154.706 16.2542C155.829 22.1572 158.017 24.6191 162.168 24.6191C164.356 24.5911 166.236 23.8917 169.406 21.8494C174.146 18.828 179.196 16.7298 183.628 15.9465C184.834 15.7226 186.994 15.6387 189.238 15.7226C192.212 15.8346 193.222 15.9744 194.933 16.5899C200.095 18.4084 203.545 22.2411 204.976 27.6965C205.593 30.0744 205.593 35.9215 204.947 38.9988C204.695 40.2298 204.527 41.2649 204.583 41.2929C204.639 41.3488 209.324 38.0476 210.221 37.3203C210.698 36.9006 210.726 36.509 210.614 32.2286C210.502 27.9203 210.418 27.3328 209.604 24.8988C208.426 21.3179 207.023 19.0238 204.471 16.478C202.058 14.0721 198.832 12.2536 195.101 11.1625C193.138 10.575 192.268 10.4911 188.229 10.4911C184.329 10.5191 183.179 10.603 180.935 11.1625C175.97 12.3935 171.061 14.5476 166.488 17.4851C165.422 18.1845 164.356 18.7441 164.104 18.7441C163.739 18.7441 163.739 18.6881 164.076 18.4923C164.412 18.2685 164.076 17.5691 162.449 14.8274C161.327 12.953 160.345 11.4982 160.289 11.5542C160.12 11.7221 161.467 16.5899 162.056 17.9887C162.561 19.1917 162.449 19.4715 161.607 19.0518C160.822 18.6042 160.289 17.4851 159.896 15.4709C158.802 9.3161 155.352 4.44824 150.33 1.98634C146.824 0.251815 143.177 -0.307709 138.997 0.307768Z" fill="#FBF5F3"/>
<path d="M246.324 28.2839C238.47 29.1232 228.679 32.4524 220.068 37.2643C205.481 45.3774 191.931 58.1345 182.169 72.878C173.277 86.3345 167.61 100.043 164.132 116.521C163.122 121.221 161.972 129.782 161.691 134.454C161.411 139.657 161.776 140.161 168.592 143.63C180.262 149.589 194.316 153.477 210.249 155.184C216.954 155.883 234.262 155.911 241.106 155.184C265.063 152.694 286.438 145.672 302.4 135.041C307.365 131.74 309.918 129.614 314.603 124.942C322.092 117.444 325.936 111.233 327.871 103.512C328.909 99.2875 328.909 94.1679 327.843 90.3072C325.15 80.4595 317.183 72.9339 305.486 69.1292C299.23 67.0869 290.758 66.2197 283.325 66.8351C281.249 67.003 279.229 67.0589 278.836 66.947C278.135 66.7512 278.135 66.7512 278.977 66.5833L279.818 66.4435L279.706 61.128C279.65 58.1905 279.51 55.7006 279.369 55.5327C279.201 55.3929 279.117 55.5048 279.117 55.8405C279.117 56.1482 278.752 57.9387 278.275 59.8131C277.826 61.7155 277.35 63.9256 277.265 64.7649C277.069 66.4435 276.845 66.6113 276.199 65.6881C275.526 64.7369 275.666 62.8625 276.564 60.0369C279.51 50.8887 277.714 42.328 271.543 36.0613C270.224 34.7464 268.401 33.1798 267.475 32.5923C261.753 28.9554 254.347 27.4726 246.324 28.2839ZM254.431 35.25C262.706 36.2572 268.569 40.8173 270.449 47.6994C271.234 50.6089 271.094 54.1899 270.028 57.631C268.064 63.9536 268.036 66.7792 269.916 69.6887C271.851 72.7381 274.937 73.9411 280.239 73.8292C289.047 73.6054 294.433 73.7173 297.351 74.2488C305.121 75.5917 311.573 78.725 315.977 83.2012C318.333 85.6351 319.82 88.0131 320.83 91.0625C321.475 93.0208 321.588 93.7482 321.559 96.7976C321.559 100.966 321.026 103.316 319.119 107.289C316.847 112.101 313.565 116.409 308.543 121.277C297.126 132.299 279.734 140.72 259.06 145.308C242.705 148.917 226.043 149.868 209.688 148.134C205.761 147.714 200.74 146.903 200.936 146.707C200.964 146.651 202.9 146.791 205.228 146.987C217.795 148.162 229.745 147.658 242.93 145.448C271.936 140.552 295.499 127.488 305.542 110.646C310.142 102.98 310.619 95.0351 306.832 88.7685C303.746 83.6768 297.435 79.4244 290.029 77.4941C285.232 76.2631 282.679 76.0393 273.787 76.1512L265.792 76.2351L263.969 75.3679C261.5 74.1929 260.49 73.2976 259.593 71.3952C258.919 70.0524 258.807 69.4369 258.807 67.4226C258.807 65.4363 259.004 64.4572 259.929 61.5476C260.911 58.3863 261.023 57.7708 260.995 55.1131C260.995 52.847 260.827 51.756 260.35 50.3572C258.19 44.0905 252.58 40.2018 244.613 39.5024C239.283 39.0268 232.859 40.006 226.688 42.2441C225.397 42.7197 224.303 43.0554 224.219 42.9994C223.855 42.6077 232.466 38.803 236.899 37.4042C243.743 35.222 248.961 34.6066 254.431 35.25Z" fill="#FBF5F3"/>
<path d="M211.624 33.1518C211.68 34.8304 211.764 36.2572 211.764 36.3131C211.82 36.481 214.036 34.8583 214.036 34.6345C214.036 34.2149 212.353 30.9417 211.904 30.4941C211.512 30.1304 211.484 30.4101 211.624 33.1518Z" fill="#FBF5F3"/>
<path d="M160.317 101.33C150.218 106.449 138.941 110.17 129.432 111.485C127.777 111.737 124.607 112.017 122.335 112.157C117.622 112.464 116.612 112.744 116.135 113.863C115.546 115.29 116.388 117.5 119.389 122.536C122.839 128.327 124.298 131.824 125.448 137.223C126.065 140.217 126.094 140.664 126.094 155.268V170.235L125.448 171.634C124.214 174.292 123.681 174.627 117.594 176.586C105.924 180.307 99.8649 184.895 98.7429 190.798C98.1257 193.987 99.893 196.952 103.512 198.771C108.477 201.261 116.416 202.268 131.031 202.268C148.928 202.268 157.764 200.617 161.495 196.589C162.926 195.05 163.375 193.539 163.15 191.133C162.533 184.251 154.202 178.264 141.69 175.69C137.202 174.767 136.164 173.928 135.351 170.739C134.705 168.165 134.874 140.776 135.547 138.566C137.118 133.446 140.119 133.726 141.382 139.098C141.746 140.664 141.718 146.511 141.382 154.764C141.101 160.611 141.129 161.507 141.522 162.262C142.251 163.661 144.411 163.801 145.393 162.486C145.954 161.73 145.954 161.59 145.59 150.876C145.337 142.902 145.309 139.713 145.562 138.902C146.375 135.88 148.872 133.558 153.921 131.068C156.838 129.614 157.091 129.446 157.203 128.607C157.287 128.103 157.596 125.809 157.932 123.515C158.97 116.297 160.625 108.967 162.814 102.029C163.178 100.854 163.403 99.875 163.29 99.903C163.206 99.903 161.86 100.546 160.317 101.33ZM144.608 179.719C150.386 181.174 155.408 184.083 157.456 187.161C158.185 188.196 158.073 189.846 157.231 190.658C155.744 192.168 153.416 191.217 151.06 188.112C148.479 184.699 144.972 182.097 140.232 180.111C139.025 179.607 138.016 179.076 138.016 178.936C138.016 178.572 141.803 179.02 144.608 179.719ZM107.187 196.085C111.535 197.54 121.269 199.47 124.354 199.47C124.887 199.47 125.084 199.582 124.943 199.806C124.635 200.282 116.416 199.89 112.348 199.19C108.281 198.491 104.55 197.344 103.624 196.477C102.109 195.078 103.68 194.91 107.187 196.085Z" fill="#FBF5F3"/>
<path d="M325.15 113.136C322.121 119.151 318.754 123.823 313.621 129.082C309.609 133.167 307.225 135.237 302.681 138.482C286.831 149.813 265.315 157.198 241.106 159.66C234.065 160.36 217.346 160.36 210.67 159.66C195.101 157.982 182.422 154.568 170.359 148.805C166.292 146.847 164.861 146.539 163.795 147.379C161.86 148.917 161.916 152.526 164.104 167.857C164.721 172.082 165.422 176.166 165.675 176.893C166.264 178.6 168.648 181.23 170.808 182.545C173.838 184.363 182.113 187.217 189.351 188.923C212.578 194.435 239.928 193.763 264.642 187.133C290.534 180.167 310.703 167.13 320.998 150.708C323.074 147.435 324.224 144.581 324.87 141.168C325.459 138.035 327.366 116.045 327.366 112.324C327.366 111.038 327.254 109.918 327.114 109.835C327.002 109.751 326.104 111.233 325.15 113.136Z" fill="#FBF5F3"/>
<path d="M301.138 187.692C294.405 188.783 287.645 192.085 283.661 196.197C278.079 202.016 279.958 206.324 288.851 208.115C293.788 209.122 297.21 209.346 306.467 209.346C315.725 209.346 319.147 209.122 324.084 208.115C333.341 206.268 334.996 201.624 328.544 195.526C325.01 192.168 320.83 189.958 315.023 188.42C312.443 187.72 311.489 187.636 307.309 187.552C304.7 187.524 301.923 187.58 301.138 187.692ZM313.396 190.07C318.782 191.105 323.411 193.315 326.469 196.281C328.376 198.183 328.488 198.351 328.488 199.526C328.488 201.093 327.619 202.044 326.16 202.044C324.477 202.044 323.299 201.177 321.335 198.491C320.157 196.896 318.277 195.134 316.37 193.847C314.659 192.672 309.834 190.238 309.245 190.238C309.048 190.238 308.796 190.098 308.712 189.958C308.459 189.539 310.956 189.623 313.396 190.07ZM287.589 204.758C291.347 205.961 293.115 206.38 297.21 207.024C299.202 207.36 300.913 207.695 300.997 207.779C301.222 208.031 294.742 207.583 292.105 207.164C287.645 206.436 284.166 205.205 284.166 204.366C284.166 203.779 284.643 203.835 287.589 204.758Z" fill="#FBF5F3"/>
<path d="M238.161 195.861C221.582 197.736 204.779 208.954 204.667 218.214C204.667 219.753 204.807 220.285 205.424 221.348C207.64 225.152 213.195 227.223 224.977 228.705C229.745 229.321 251.177 229.601 258.358 229.153C273.142 228.23 281.754 225.516 283.886 221.152C284.811 219.221 284.615 216.424 283.381 213.962C278.92 205.261 264.754 197.372 250.728 195.861C247.615 195.498 241.247 195.526 238.161 195.861ZM253.309 199.191C262.061 200.981 271.122 205.289 275.666 209.821C278.331 212.479 278.949 213.486 279.061 215.529C279.173 217.459 278.64 218.634 277.237 219.529C276.199 220.201 273.422 220.201 272.132 219.501C270.645 218.718 268.569 216.62 266.774 214.13C262.538 208.283 255.525 203.303 246.577 199.75C244.95 199.107 243.575 198.519 243.491 198.435C243.154 198.071 250.644 198.631 253.309 199.191ZM216.701 222.103C223.153 224.201 230.194 225.6 238.385 226.467C240.461 226.691 242.229 226.943 242.313 227.027C242.565 227.279 231.12 227.167 227.922 226.887C222.424 226.383 214.513 224.621 211.932 223.334C210.866 222.802 209.548 221.571 209.548 221.124C209.548 220.145 211.315 220.368 216.701 222.103Z" fill="#FBF5F3"/>
<path d="M289.356 258.808C288.43 258.92 287.224 259.171 286.691 259.311C286.158 259.479 285.176 259.731 284.531 259.899C283.858 260.067 283.044 260.486 282.708 260.85C282.062 261.521 279.846 262.417 278.836 262.417C278.556 262.417 278.219 262.557 278.135 262.696C278.023 262.864 277.518 263.172 276.985 263.396C276.452 263.62 276.031 263.983 276.031 264.207C276.031 264.459 275.863 264.655 275.638 264.655C275.049 264.655 274.544 265.41 274.46 266.473C274.404 267.173 274.516 267.452 274.797 267.452C275.274 267.452 275.274 267.592 274.881 268.32C274.713 268.683 274.432 268.823 274.152 268.739C273.899 268.627 273.45 268.823 273.086 269.187C272.749 269.551 271.936 270.194 271.29 270.614C270.617 271.089 270.056 271.705 269.972 272.152C269.86 272.572 269.467 273.271 269.102 273.719C268.317 274.67 266.381 278.419 266.101 279.566C265.96 280.182 265.792 280.321 265.371 280.182C264.726 279.986 264.249 280.769 264.165 282.196C264.109 282.727 263.885 283.343 263.604 283.539C263.352 283.735 263.127 284.182 263.127 284.574C263.127 284.966 262.875 285.553 262.594 285.889C261.584 287.064 261.444 293.75 262.398 295.233C262.622 295.568 262.959 296.604 263.155 297.527C263.352 298.45 263.716 299.457 264.025 299.793C264.305 300.101 264.53 300.492 264.53 300.632C264.53 301.024 265.792 302.199 265.989 302.003C266.073 301.891 266.437 302.227 266.774 302.674C267.896 304.297 271.683 306.423 275.19 307.458C276.34 307.794 278.303 308.466 279.538 308.941C281.473 309.668 282.118 309.78 284.166 309.752C287.336 309.724 291.095 309.165 291.6 308.689C292.133 308.13 292.498 308.214 292.89 308.885C293.087 309.305 293.143 310.899 293.059 314.005C292.75 323.321 291.712 327.266 288.711 330.455C286.635 332.665 284.391 333.616 280.239 334.036C275.919 334.483 273.226 333.532 270.112 330.399C268.625 328.944 267.335 326.958 267.335 326.174C267.335 325.979 266.942 324.999 266.437 323.992C265.848 322.789 265.484 322.314 265.428 322.649C265.371 322.929 265.399 323.377 265.512 323.629C265.624 323.88 265.708 325.027 265.736 326.174C265.736 327.937 265.82 328.245 266.269 328.385C267.026 328.58 266.886 329.28 266.073 329.28C265.652 329.28 265.203 329 264.923 328.58C264.67 328.189 264.39 327.909 264.333 327.993C264.277 328.049 264.67 328.692 265.203 329.42C266.942 331.658 266.353 331.966 264.305 329.867C261.22 326.678 260.322 325.559 260.322 324.999C260.322 324.58 260.238 324.496 260.013 324.72C259.789 324.943 259.761 325.279 259.985 325.895C260.238 326.594 260.21 326.762 259.873 326.762C259.565 326.762 259.509 327.07 259.677 328.357C259.817 329.56 260.098 330.315 260.855 331.378C261.416 332.133 262.089 332.945 262.342 333.141C262.622 333.336 262.791 333.616 262.706 333.756C262.538 334.036 265.147 335.798 266.213 336.134C266.578 336.246 267.559 336.777 268.401 337.337C270.309 338.54 272.581 339.435 275.105 339.995C276.901 340.414 286.326 341.002 287.252 340.778C287.476 340.722 289.805 340.638 292.385 340.61L297.098 340.554L299.118 339.575C300.24 339.016 301.643 338.344 302.26 338.092C304.223 337.197 307.365 334.176 308.291 332.217C308.768 331.238 309.132 330.287 309.132 330.091C309.132 329.895 309.329 329.504 309.609 329.224C309.89 328.888 310.086 328.105 310.142 326.986C310.226 325.335 310.339 323.517 310.675 318.369C310.787 316.579 309.665 299.373 309.273 296.548C308.796 293.191 308.291 283.287 308.319 276.964C308.319 272.88 308.207 268.488 308.038 267.229C307.87 265.746 307.87 264.627 308.038 264.179C308.403 263.228 308.403 263.284 307.253 262.78C306.664 262.557 306.019 262.109 305.822 261.829C305.402 261.242 301.278 259.843 298.052 259.227C295.135 258.696 291.46 258.5 289.356 258.808ZM281.642 262.557C281.642 262.641 281.109 263.032 280.463 263.452C279.818 263.899 278.977 264.515 278.584 264.879C278.051 265.354 277.658 265.494 277.097 265.382C276.34 265.242 275.61 265.774 276.284 265.998C276.789 266.166 276.087 266.893 275.442 266.893C274.713 266.893 274.769 266.529 275.666 265.494C276.648 264.319 278.359 263.256 279.257 263.256C279.706 263.256 279.958 263.088 279.958 262.836C279.958 262.557 280.239 262.417 280.8 262.417C281.277 262.417 281.642 262.473 281.642 262.557ZM295.219 269.746C294.966 275.454 294.573 275.985 294.545 270.614C294.545 266.417 294.658 265.494 295.135 265.494C295.303 265.494 295.331 267.229 295.219 269.746ZM293.592 267.928C293.339 270.977 293.339 271.005 293.508 281.441C293.704 292.435 293.367 291.596 292.862 279.818C292.442 270.39 292.666 265.774 293.479 265.774C293.648 265.774 293.704 266.585 293.592 267.928ZM292.133 266.949C292.301 267.9 292.273 268.152 291.909 269.439C291.74 270.054 292.021 283.371 292.498 297.807L292.638 301.723L291.516 302.367C290.31 303.038 289.328 303.206 289.664 302.674C289.973 302.171 290.085 300.744 289.805 300.744C289.664 300.744 288.374 301.36 286.943 302.143C284.419 303.486 283.465 303.793 283.269 303.318C283.24 303.206 282.315 302.702 281.277 302.171C279.005 301.052 277.995 299.933 276.312 296.66L275.049 294.226L275.077 291.12C275.077 287.987 275.442 286.029 276.592 282.923C278.556 277.636 282.567 272.013 286.523 269.047C291.011 265.662 291.824 265.354 292.133 266.949ZM272.272 271.313C271.627 271.957 271.346 271.481 271.992 270.782C272.328 270.418 272.553 270.334 272.609 270.53C272.693 270.726 272.525 271.061 272.272 271.313ZM270.701 273.439C270.701 273.523 270.589 273.663 270.421 273.747C270.28 273.831 270.14 273.775 270.14 273.635C270.14 273.467 270.28 273.327 270.421 273.327C270.589 273.327 270.701 273.383 270.701 273.439ZM269.86 274.698C269.86 275.034 269.299 275.398 269.102 275.202C268.906 275.006 269.271 274.446 269.607 274.446C269.748 274.446 269.86 274.558 269.86 274.698ZM268.457 277.356C268.457 277.776 267.952 278.223 267.728 277.999C267.531 277.804 267.924 276.964 268.205 276.964C268.345 276.964 268.457 277.132 268.457 277.356ZM263.688 286.896C263.688 287.12 263.576 287.316 263.408 287.316C263.268 287.316 263.127 287.12 263.127 286.896C263.127 286.672 263.268 286.476 263.408 286.476C263.576 286.476 263.688 286.672 263.688 286.896ZM266.634 293.778C266.858 294.729 266.606 295.205 266.213 294.589C265.876 294.058 265.848 292.911 266.185 292.911C266.325 292.911 266.522 293.302 266.634 293.778ZM264.67 296.268C264.895 296.716 265.091 297.191 265.091 297.303C265.063 297.695 263.969 296.212 263.969 295.82C263.969 295.205 264.193 295.345 264.67 296.268ZM294.125 295.708C294.209 295.848 294.153 295.988 294.012 295.988C293.844 295.988 293.704 295.848 293.704 295.708C293.704 295.541 293.76 295.429 293.816 295.429C293.9 295.429 294.04 295.541 294.125 295.708ZM268.738 303.122C268.934 303.346 268.962 303.542 268.794 303.542C268.653 303.542 268.373 303.346 268.177 303.122C267.98 302.898 267.952 302.702 268.12 302.702C268.261 302.702 268.541 302.898 268.738 303.122Z" fill="#FBF5F3"/>
<path d="M291.291 300.604C290.815 300.968 290.815 300.996 291.235 301.024C291.488 301.024 291.796 300.884 291.881 300.716C292.189 300.24 291.881 300.157 291.291 300.604Z" fill="#FBF5F3"/>
<path d="M12.3429 260.57C11.9501 260.794 11.361 261.354 10.9964 261.829C10.2951 262.78 9.93039 262.892 9.28519 262.305C8.05091 261.186 3.36623 264.375 3.36623 266.305C3.36623 266.781 3.22597 267.173 3.05766 267.173C2.8613 267.173 2.80519 266.865 2.88935 266.333C3.14182 265.102 2.66493 265.074 1.4026 266.249L0.280518 267.313V271.313C0.280518 273.915 0.392725 275.258 0.561037 275.146C0.729349 275.062 0.841557 273.803 0.841557 272.348C0.841557 270.921 0.925712 269.551 1.00987 269.299C1.29039 268.543 1.96363 268.795 2.16 269.746L2.35636 270.67L2.63688 269.942C3.36623 268.208 3.6187 268.963 4.17974 274.307C4.46026 277.076 4.74078 278.111 5.30182 278.587C5.69454 278.895 5.69454 278.979 5.18961 279.342C4.82493 279.65 4.74078 279.846 4.93714 279.986C5.49818 280.349 5.89091 281.385 5.89091 282.532C5.89091 283.958 5.66649 284.518 5.0774 284.518C4.71273 284.518 4.62857 284.854 4.57247 286.336C4.51636 287.903 4.60052 288.183 5.0774 288.463C5.61039 288.742 5.63844 288.938 5.47013 290.337C5.35792 291.232 5.16156 292.071 4.99325 292.267C4.82493 292.491 4.82493 292.939 5.0213 293.554C5.21766 294.086 5.32987 295.82 5.32987 297.415C5.30182 299.01 5.44208 300.772 5.58234 301.304C5.94701 302.451 6.00312 305.444 5.66649 305.08C5.52623 304.913 5.27377 303.486 5.0774 301.891C4.90909 300.268 4.71273 298.926 4.65662 298.87C4.60052 298.814 4.34805 298.842 4.09558 298.954C3.6187 299.149 3.45039 300.604 3.92727 300.884C4.06753 300.968 4.12363 301.22 4.01143 301.443C3.92727 301.723 4.03948 301.863 4.32 301.863C4.74078 301.863 4.74078 301.919 4.34805 302.507C3.98338 303.066 3.98338 303.766 4.20779 307.598C4.3761 310.032 4.57247 312.326 4.65662 312.662C4.76883 313.138 4.71273 313.333 4.40415 313.333C3.75896 313.333 3.73091 313.725 3.98338 317.81C4.09558 319.88 4.17974 324.552 4.15169 328.161L4.06753 334.735L5.32987 334.651C6.03117 334.595 6.73247 334.371 6.92883 334.148C7.20935 333.784 7.26545 333.784 7.43377 334.288C7.71428 335.155 9.14493 335.351 10.1268 334.623C10.5475 334.288 11.0244 334.036 11.1647 334.036C11.3049 334.036 11.5855 333.84 11.7818 333.616C11.9782 333.364 12.3429 333.252 12.5673 333.336C12.7917 333.42 13.2125 333.28 13.493 333.029C13.9979 332.581 14.026 332.581 14.026 333.001C14.026 333.336 14.2504 333.476 14.7553 333.476C15.1761 333.476 16.0177 333.616 16.6348 333.812C17.5325 334.092 17.7849 334.092 17.8971 333.812C17.9532 333.616 18.2618 333.476 18.5704 333.476C19.0192 333.476 19.1034 333.616 18.9912 334.176L18.879 334.903L20.5901 334.735C21.5158 334.623 23.5636 334.26 25.1065 333.896C26.6494 333.504 28.9216 333.085 30.1558 332.917C33.494 332.469 39.4691 330.846 42.2743 329.616C44.7148 328.58 50.1288 325.503 53.439 323.321C56.0478 321.586 60.3397 317.026 61.8826 314.368C62.612 313.11 63.5657 311.459 64.0146 310.704C64.6317 309.641 64.8 309.109 64.6878 308.438C64.6036 307.962 64.7159 306.843 64.9403 305.976C65.4171 304.101 65.5013 301.975 65.0525 301.723C64.9122 301.611 64.8 301.248 64.8281 300.94C64.8281 300.604 64.8281 300.185 64.8 300.045C64.772 299.877 64.772 299.429 64.8 299.038C64.8561 297.918 64.0146 294.953 63.2852 293.778C62.9486 293.218 62.4997 292.239 62.3034 291.568C62.079 290.701 61.8265 290.393 61.574 290.505C61.0691 290.701 60.452 290.057 59.6946 288.602C59.386 287.987 58.853 287.092 58.5164 286.616C58.2078 286.168 57.6748 285.273 57.3382 284.63C56.1881 282.392 53.439 279.007 49.5397 275.146C45.1636 270.782 43.1439 269.243 38.5714 266.837C36.1029 265.522 35.7101 265.242 36.5797 265.382C37.9543 265.606 37.7579 265.13 36.2992 264.655C35.4857 264.375 35.2332 264.375 35.0649 264.683C34.8686 264.963 34.6161 264.963 33.7465 264.711C33.1574 264.543 32.4 264.319 32.0353 264.207C31.6707 264.123 31.4462 263.899 31.5023 263.676C31.6145 263.424 31.0535 263.284 29.3984 263.144C28.1642 263.032 26.8738 262.808 26.5652 262.64C26.0042 262.361 24.4332 262.249 19.1314 262.165L16.2421 262.137L15.681 261.158C15.1761 260.318 14.9517 260.179 14.0821 260.179C13.493 260.207 12.7356 260.374 12.3429 260.57ZM18.8229 269.215C19.4961 269.439 20.2255 269.551 20.4218 269.467C20.8707 269.327 23.2551 270.25 26.453 271.845C28.2483 272.74 28.9777 273.271 29.174 273.775C29.3423 274.167 29.707 274.558 30.0156 274.642C30.4364 274.754 30.5486 274.95 30.4364 275.314C30.3242 275.621 30.3803 275.845 30.5486 275.845C30.7169 275.845 30.8571 275.705 30.8571 275.565C30.8571 275.118 31.5865 275.258 32.0914 275.817C32.3439 276.097 32.4842 276.517 32.4 276.74C32.1756 277.3 33.3538 278.727 33.8587 278.531C34.0831 278.447 34.2234 278.531 34.1673 278.727C34.1392 278.895 35.0369 280.014 36.187 281.189C39.7777 284.798 42.4987 288.686 44.7709 293.33C48.586 301.192 49.2031 304.689 47.6603 309.696C46.2577 314.173 43.0036 318.565 39.1886 321.111C37.0286 322.566 31.9512 325.251 29.3143 326.37C27.7714 327.014 22.2171 328.441 21.2073 328.441C20.8145 328.441 20.7584 327.741 20.7584 323.041C20.7584 315.04 19.7766 303.402 18.907 301.024C18.8229 300.8 18.7106 299.765 18.6545 298.73C18.5984 297.667 18.4021 296.576 18.2338 296.268C18.0655 295.932 17.9813 295.485 18.0655 295.205C18.1496 294.953 18.0655 293.918 17.9252 292.911C17.5886 290.785 17.28 287.511 16.8031 281.161C16.186 272.768 16.3543 268.851 17.3642 268.851C17.4764 268.851 18.1496 269.019 18.8229 269.215ZM36.187 279.762C36.187 279.902 36.1309 280.042 36.0748 280.042C35.9907 280.042 35.8504 279.902 35.7662 279.762C35.6821 279.594 35.7382 279.482 35.8784 279.482C36.0468 279.482 36.187 279.594 36.187 279.762ZM41.0681 282.532C42.3023 284.014 42.667 284.798 42.0779 284.798C41.7413 284.798 39.6935 282.224 39.1044 281.077C38.6836 280.293 38.6836 280.266 39.2166 280.629C39.4971 280.853 40.3387 281.692 41.0681 282.532ZM37.3091 280.881C37.3091 281.021 37.253 281.161 37.1969 281.161C37.1127 281.161 36.9725 281.021 36.8883 280.881C36.8042 280.713 36.8603 280.601 37.0005 280.601C37.1688 280.601 37.3091 280.713 37.3091 280.881ZM43.2 286.085C43.2 286.308 43.0878 286.42 42.9195 286.336C42.7792 286.252 42.639 286.057 42.639 285.889C42.639 285.749 42.7792 285.637 42.9195 285.637C43.0878 285.637 43.2 285.833 43.2 286.085ZM46.1735 290.029C46.2577 290.477 46.3699 290.98 46.454 291.148C46.5101 291.344 46.3979 291.512 46.2016 291.512C45.8649 291.512 43.761 287.875 43.761 287.288C43.761 286.7 45.9771 289.246 46.1735 290.029ZM47.6322 294.198C47.7444 295.121 47.3236 294.869 46.987 293.778C46.8468 293.302 46.8748 293.163 47.1553 293.246C47.3797 293.33 47.5761 293.75 47.6322 294.198Z" fill="#FBF5F3"/>
<path d="M188.705 260.374C188.593 260.458 186.545 260.514 184.105 260.514C180.795 260.486 179.589 260.57 179.28 260.85C179.028 261.046 178.466 261.298 177.99 261.41C176.699 261.717 172.239 263.927 172.239 264.263C172.239 264.431 171.285 265.158 170.135 265.886C168.901 266.669 168.031 267.396 168.031 267.676C168.031 267.928 166.516 269.97 164.637 272.208C161.411 276.097 160.177 277.915 160.177 278.727C160.177 278.951 159.924 279.342 159.616 279.622C159.195 280.014 159.139 280.21 159.391 280.517C159.588 280.769 159.616 281.077 159.419 281.524C158.97 282.504 159.475 286.113 160.289 287.987C160.682 288.91 160.962 289.693 160.906 289.777C160.654 290.029 158.746 288.323 158.606 287.707C158.437 287.036 157.652 286.756 157.652 287.343C157.652 288.183 161.046 291.148 161.579 290.813C161.719 290.729 161.776 290.84 161.691 291.064C161.607 291.288 161.776 291.596 162.112 291.792C162.533 292.015 162.701 292.015 162.701 291.792C162.701 291.624 162.842 291.568 163.01 291.652C163.178 291.764 163.234 292.015 163.15 292.211C163.01 292.603 166.404 295.708 166.937 295.708C167.105 295.708 168.256 296.296 169.518 297.051C170.78 297.779 172.435 298.702 173.193 299.065C174.567 299.765 175.184 300.464 174.399 300.464C174.175 300.464 173.445 300.101 172.772 299.625C172.099 299.177 171.285 298.786 170.977 298.786C170.668 298.786 169.855 298.394 169.181 297.946C167.638 296.883 167.134 296.855 168.199 297.863C169.153 298.786 171.622 300.24 175.241 301.975C180.486 304.549 186.545 308.605 186.545 309.585C186.545 309.808 186.686 309.976 186.826 309.976C186.994 309.976 187.106 310.144 187.106 310.368C187.106 310.592 187.555 311.151 188.116 311.627C188.705 312.158 189.491 313.361 190.108 314.676C190.978 316.607 191.062 316.97 190.894 318.369C190.585 320.719 189.715 322.705 188.172 324.552C186.405 326.678 185.536 327.21 183.067 327.629C180.542 328.049 175.914 327.573 172.66 326.566C170.836 325.979 170.247 325.643 169.434 324.748C168.901 324.132 167.667 322.817 166.685 321.838C165.703 320.859 164.665 319.516 164.384 318.845C163.627 317.138 163.403 314.788 163.851 313.445C164.356 311.879 164.412 309.78 163.936 309.389C163.29 308.857 161.691 310.06 161.13 311.543C160.878 312.242 160.401 312.97 160.121 313.165C159.84 313.389 159.616 313.641 159.672 313.781C159.7 313.921 159.475 314.48 159.195 315.012L158.634 315.991L158.55 315.208C158.437 314.257 157.596 313.781 156.39 314.005C155.324 314.201 154.959 314.564 154.707 315.627C154.566 316.159 154.314 316.411 153.781 316.467C153.079 316.551 153.023 316.663 152.883 318.229C152.743 319.796 152.687 319.852 152.378 319.208C152.07 318.593 152.042 318.677 152.182 319.908C152.434 322.118 152.827 322.985 154.089 324.188C156.137 326.174 157.371 327.601 157.371 327.965C157.371 328.552 158.69 329.14 159.111 328.776C159.335 328.608 159.644 328.58 159.868 328.692C160.177 328.888 160.121 329 159.728 329.224C159.447 329.392 159.251 329.56 159.335 329.615C159.419 329.671 159.952 329.951 160.541 330.231C161.579 330.763 161.86 331.322 161.271 331.658C161.13 331.77 160.766 331.658 160.485 331.406C160.036 330.986 159.616 331.042 159.616 331.518C159.616 331.63 160.149 331.882 160.822 332.077C161.467 332.273 162.168 332.637 162.365 332.889C162.561 333.113 163.431 333.588 164.328 333.924C167.498 335.127 167.891 335.295 168.368 335.77C168.648 336.05 168.873 336.386 168.873 336.526C168.873 337.197 172.155 337.477 177.429 337.281C182.843 337.057 185.059 336.749 186.826 335.91C187.359 335.658 188.818 335.071 190.052 334.595C192.689 333.616 196.083 331.658 197.85 330.119C199.758 328.44 204.695 322.23 204.555 321.67C204.499 321.335 204.723 321.083 205.228 320.859C205.761 320.691 205.901 320.495 205.677 320.355C205.452 320.215 205.509 319.852 205.929 318.985C206.294 318.285 206.434 317.614 206.322 317.306C206.21 317.054 206.098 315.711 206.042 314.368C206.014 312.998 205.817 311.739 205.649 311.571C205.481 311.403 205.34 310.955 205.34 310.564C205.34 310.144 205.088 309.445 204.779 308.997C204.471 308.521 204.218 307.878 204.218 307.542C204.218 307.151 203.321 306.004 201.694 304.325C200.319 302.898 198.972 301.36 198.72 300.856C198.103 299.737 195.69 298.142 191.539 296.072C187.976 294.31 187.499 294.03 187.92 293.75C188.397 293.47 182.534 290.617 181.973 290.84C181.664 290.952 181.244 290.813 180.851 290.477C180.514 290.169 179.476 289.498 178.579 288.966C176.278 287.651 171.818 283.259 171.566 282.084C171.229 280.629 172.043 278.503 174.09 275.286C177.008 270.67 177.344 270.25 178.607 269.215L179.785 268.264L181.047 268.991C183.712 270.558 187.275 275.258 188.481 278.839C188.874 280.014 189.182 280.489 189.575 280.545C190.136 280.629 191.37 279.622 191.679 278.811C191.875 278.307 192.436 278.195 192.436 278.643C192.436 278.811 192.745 279.09 193.138 279.258C193.53 279.426 193.839 279.734 193.839 279.958C193.839 280.489 194.232 280.405 194.821 279.762C195.101 279.426 195.55 279.258 195.803 279.342C196.308 279.51 196.981 278.867 197.317 277.943C197.514 277.412 197.542 277.412 197.878 277.86C198.383 278.559 198.58 278.503 199.001 277.496C199.702 275.845 199.029 274.111 196.42 270.614C194.512 268.124 193.979 267.201 194.26 266.949C194.568 266.641 198.131 270.614 198.888 272.096C199.281 272.852 199.758 273.607 199.954 273.747C200.151 273.915 200.684 274.67 201.076 275.426C201.75 276.685 201.918 276.824 202.675 276.713C203.769 276.601 203.938 276.489 203.938 275.817C203.938 275.006 202.647 271.453 201.834 270.11C200.656 268.096 198.411 265.634 195.606 263.2C193.194 261.158 192.689 260.85 191.174 260.542C189.21 260.123 188.958 260.123 188.705 260.374ZM187.808 268.04C189.126 269.299 190.192 270.502 190.192 270.698C190.192 270.893 190.361 271.229 190.557 271.425C191.09 271.985 192.464 275.006 192.184 275.006C192.044 275.006 191.651 274.474 191.314 273.831C190.473 272.236 188.397 269.607 187.527 269.019C187.135 268.767 186.854 268.376 186.882 268.152C186.938 267.956 186.461 267.34 185.844 266.781C185.227 266.249 184.89 265.802 185.087 265.774C185.283 265.774 186.517 266.809 187.808 268.04ZM183.572 268.04C184.273 268.655 184.862 269.327 184.862 269.495C184.862 269.663 184.526 269.467 184.105 269.075C183.656 268.683 182.983 268.152 182.562 267.872C181.805 267.396 181.524 266.893 182.029 266.893C182.141 266.893 182.843 267.396 183.572 268.04ZM193.418 269.718C193.671 270.166 193.727 270.53 193.586 270.53C193.306 270.53 192.436 269.103 192.436 268.711C192.436 268.348 193.025 268.935 193.418 269.718ZM185.872 270.726C185.676 270.921 185.143 270.53 185.143 270.194C185.143 270.026 185.311 270.026 185.564 270.25C185.816 270.446 185.928 270.67 185.872 270.726ZM187.106 272.068C187.106 272.292 186.994 272.488 186.854 272.488C186.714 272.488 186.545 272.292 186.433 272.068C186.349 271.817 186.433 271.649 186.686 271.649C186.91 271.649 187.106 271.845 187.106 272.068ZM189.379 272.544C189.687 273.132 189.687 273.16 189.266 272.796C188.986 272.6 188.79 272.32 188.79 272.18C188.79 271.761 189.042 271.901 189.379 272.544ZM184.89 292.351C185.255 292.631 185.479 292.883 185.367 292.911C184.975 292.911 183.74 292.267 183.74 292.015C183.74 291.624 184.189 291.764 184.89 292.351ZM201.441 310.396C202.255 312.158 202.507 313.893 201.974 313.893C201.834 313.893 201.694 313.725 201.694 313.529C201.694 313.333 201.329 312.298 200.852 311.235C199.449 307.906 199.954 307.179 201.441 310.396ZM158.662 320.104C158.942 321.335 158.942 321.446 158.578 321.083C158.157 320.663 157.68 318.061 158.101 318.453C158.241 318.593 158.494 319.32 158.662 320.104Z" fill="#FBF5F3"/>
<path d="M334.688 263.172C333.762 263.256 333.033 263.452 332.864 263.704C332.528 264.151 329.863 264.655 329.021 264.459C328.601 264.347 328.46 264.515 328.32 265.186C328.18 265.886 327.983 266.054 327.394 266.082C326.777 266.138 325.15 266.277 324.14 266.361C324 266.389 323.635 266.305 323.383 266.193C322.99 266.054 322.878 266.138 322.878 266.557C322.878 267.984 322.092 268.488 321.616 267.368C321.363 266.837 321.167 266.753 319.932 266.837C318.726 266.921 318.39 267.061 317.632 267.928C316.735 268.907 316.706 268.935 316.145 268.432C315.612 267.928 315.584 267.956 315.584 268.599C315.584 268.991 315.753 269.551 315.977 269.858C316.202 270.166 316.454 271.005 316.566 271.733C316.706 272.684 316.875 273.048 317.155 272.936C317.576 272.768 317.604 272.992 318.277 277.524C318.698 280.489 318.81 283.707 318.614 287.176C318.586 287.931 318.642 290.393 318.754 292.631C319.035 298.198 318.558 296.883 317.969 290.533C317.408 284.294 316.735 278.279 316.566 278.111C316.342 277.916 316.706 289.833 316.987 292.351C317.408 296.016 317.352 300.185 316.875 300.185C316.622 300.185 316.454 300.744 316.342 302.059C316.23 303.654 316.286 304.129 316.763 304.996C317.296 305.892 317.296 306.088 316.959 306.507C316.622 306.899 316.566 309.165 316.566 319.6C316.566 331.266 316.594 332.301 317.071 333.14C317.548 334.008 317.632 334.064 318.193 333.672C320.045 332.497 320.073 332.469 320.353 332.917C320.494 333.14 320.662 333.448 320.69 333.56C320.83 333.924 324.729 334.148 324.954 333.784C325.234 333.336 325.683 333.392 325.683 333.896C325.683 334.679 326.525 334.343 326.721 333.476C326.889 332.497 327.226 332.385 327.45 333.224C327.535 333.56 327.731 333.728 327.899 333.644C328.039 333.532 328.404 333.7 328.685 333.98C329.442 334.735 330.564 335.127 331.069 334.847C331.322 334.707 331.686 334.148 331.855 333.588C332.079 332.973 332.331 332.637 332.556 332.749C332.752 332.805 333.117 332.665 333.369 332.385C333.762 331.966 333.818 330.735 333.818 322.957C333.818 316.439 333.734 313.921 333.482 313.669C333.229 313.417 333.257 313.193 333.538 312.634C333.846 312.074 333.846 311.655 333.622 310.592C333.313 309.305 333.425 307.738 333.79 307.738C334.155 307.738 336.287 310.144 337.633 312.074C338.363 313.138 339.401 314.536 339.905 315.18C341.224 316.802 341.056 316.914 339.372 315.543L337.942 314.313L338.98 315.795C339.569 316.579 340.158 317.306 340.298 317.418C340.438 317.502 340.551 317.726 340.551 317.949C340.551 318.145 341.448 319.208 342.514 320.299C343.608 321.418 344.478 322.51 344.478 322.761C344.478 323.013 345.151 323.936 345.965 324.804C346.75 325.671 348.545 327.769 349.892 329.504C352.501 332.777 353.539 333.56 354.857 333.28C355.418 333.196 355.979 333.308 356.624 333.728C357.298 334.12 357.662 334.204 357.859 334.008C358.083 333.784 358.364 333.812 358.812 334.092C359.514 334.511 362.684 334.567 363.637 334.176C363.918 334.064 364.367 334.148 364.759 334.371C365.096 334.595 365.769 334.875 366.246 334.959C366.976 335.099 367.2 334.987 367.677 334.371C367.985 333.952 368.294 333.392 368.406 333.113C368.603 332.581 369.023 332.497 369.304 332.917C369.584 333.364 370.117 333.252 370.482 332.637C370.791 332.161 370.454 331.602 367.509 327.685C365.685 325.251 362.992 322.006 361.562 320.467C358.756 317.474 355.025 313.305 353.539 311.487C352.024 309.668 347.816 304.717 346.105 302.758C344.422 300.828 344.197 300.352 344.871 300.101C345.74 299.765 349.471 296.799 350.958 295.233C353.342 292.799 356.484 288.826 357.242 287.316C357.606 286.588 358.336 284.49 358.841 282.671C360.243 277.524 359.991 272.656 358.279 272.013C358.027 271.901 356.681 270.67 355.278 269.243C351.884 265.83 350.986 265.41 342.514 263.648C339.485 263.004 338.25 262.948 334.688 263.172ZM330.312 266.613C330.228 266.753 330.003 266.893 329.863 266.893C329.695 266.893 329.666 266.753 329.751 266.613C329.835 266.445 330.059 266.333 330.199 266.333C330.368 266.333 330.396 266.445 330.312 266.613ZM341.617 270.138C342.598 270.81 343.075 272.32 343.075 274.726C343.075 278.979 340.971 284.322 337.802 288.295C336.483 289.889 333.482 292.631 333.005 292.631C332.668 292.631 332.275 291.568 332.388 290.896C332.416 290.645 332.247 288.882 331.995 286.98C331.293 281.748 331.265 281.496 331.097 278.839C330.985 276.573 331.041 276.293 331.686 275.174C332.949 273.048 335.165 271.285 337.633 270.446C340.214 269.579 340.775 269.551 341.617 270.138ZM346.442 276.992C346.301 277.971 346.161 279.258 346.161 279.818C346.161 280.545 346.049 280.881 345.768 280.881C345.067 280.881 345.039 280.489 345.6 278.671C345.909 277.692 346.161 276.573 346.161 276.153C346.161 275.426 346.413 274.894 346.638 275.118C346.694 275.174 346.61 276.013 346.442 276.992ZM352.893 280.293C352.893 281.049 352.585 281.748 352.361 281.58C352.08 281.413 352.332 279.762 352.641 279.762C352.781 279.762 352.893 280.014 352.893 280.293ZM344.758 283.119C344.758 283.567 343.412 286.141 343.075 286.336C342.655 286.588 342.739 286.308 343.356 285.301C343.664 284.798 343.917 284.126 343.917 283.791C343.917 283.483 344.001 283.119 344.113 283.035C344.394 282.755 344.758 282.811 344.758 283.119ZM317.408 302.423C317.324 302.563 317.127 302.702 316.959 302.702C316.819 302.702 316.706 302.563 316.706 302.423C316.706 302.255 316.903 302.143 317.155 302.143C317.38 302.143 317.492 302.255 317.408 302.423ZM334.239 306.06C334.323 306.199 334.267 306.339 334.127 306.339C333.958 306.339 333.818 306.199 333.818 306.06C333.818 305.892 333.874 305.78 333.93 305.78C334.015 305.78 334.155 305.892 334.239 306.06Z" fill="#FBF5F3"/>
<path d="M225.566 265.494C225.201 265.802 224.612 266.054 224.275 266.054C223.125 266.054 221.133 268.907 221.442 270.138C221.526 270.474 221.442 271.201 221.218 271.705C220.488 273.495 219.647 276.265 219.647 276.936C219.647 277.328 219.31 278.699 218.917 280.014C218.525 281.329 218.104 282.699 218.02 283.035C217.908 283.399 217.711 283.679 217.571 283.651C217.431 283.651 217.206 283.79 217.094 284.014C216.757 284.518 216.785 285.637 217.122 285.637C217.29 285.637 217.403 285.833 217.403 286.057C217.403 286.28 217.234 286.448 217.066 286.42C216.842 286.364 216.645 286.84 216.533 287.735C216.281 289.554 215.607 291.596 215.215 291.736C215.018 291.792 214.878 291.792 214.878 291.736C214.878 291.68 215.074 290.589 215.299 289.274C215.523 287.959 215.719 286.588 215.719 286.196C215.691 285.553 215.663 285.581 215.271 286.476C215.046 287.008 214.71 288.155 214.569 288.994C214.149 291.316 213.167 294.421 212.746 294.757C212.017 295.345 210.39 306.955 210.39 311.515C210.39 317.726 212.129 323.237 215.074 326.51C216.701 328.301 217.711 328.748 220.572 329.028C222.003 329.14 223.855 329.364 224.696 329.532C229.044 330.259 231.905 330.455 234.037 330.147C235.244 329.979 236.366 329.839 236.506 329.839C236.646 329.839 236.758 329.671 236.758 329.476C236.758 329.252 237.572 328.916 238.862 328.608C240.602 328.189 241.022 327.993 241.303 327.377C241.499 326.986 242.425 326.146 243.351 325.503C245.988 323.74 248.344 321.363 250.223 318.649C251.963 316.103 252.383 315.655 252.047 316.718C251.682 317.865 252.468 316.942 253.365 315.208C253.842 314.229 254.207 313.082 254.207 312.578C254.179 312.074 254.347 311.123 254.599 310.48C255.189 308.773 255.413 304.353 255.02 301.555C254.515 297.946 253.87 294.925 253.421 294.086C253.225 293.666 253.029 293.163 253.029 292.967C253.029 292.771 252.832 292.295 252.58 291.932C252.327 291.568 252.215 291.148 252.299 291.008C252.383 290.84 252.271 290.561 252.019 290.365C251.794 290.169 251.317 289.498 251.009 288.882C250.167 287.176 249.129 285.917 248.372 285.637C247.615 285.329 247.474 284.658 248.148 284.406C248.4 284.322 248.624 284.238 248.709 284.238C248.765 284.238 249.242 284.91 249.803 285.693C250.812 287.204 251.121 287.12 250.336 285.553C249.101 283.147 246.464 279.986 245.819 280.098C245.455 280.154 245.342 280.014 245.37 279.538C245.426 279.118 245.286 278.923 244.95 278.923C244.669 278.923 243.435 278.167 242.201 277.244C239.423 275.146 238.526 274.726 236.674 274.614C235.159 274.53 233.953 274.083 233.953 273.579C233.953 273.439 234.514 272.18 235.216 270.81C235.917 269.439 236.478 268.068 236.478 267.816C236.45 266.781 230.98 264.907 230.475 265.746C230.166 266.249 229.549 266.11 229.381 265.494C229.269 265.018 229.016 264.935 227.726 264.935C226.66 264.963 226.043 265.102 225.566 265.494ZM234.683 279.09C235.889 279.65 237.6 281.692 237.6 282.532C237.6 283.371 238.47 284.406 239.031 284.294C239.62 284.182 239.956 284.965 239.395 285.189C239.059 285.329 239.087 285.581 239.648 286.672C240.742 288.798 241.724 291.736 242.369 294.869C242.902 297.247 242.986 298.31 242.846 300.996C242.705 304.577 242.06 308.046 241.219 309.948C240.321 312.018 240.293 311.011 241.219 307.263C242.06 303.793 242.06 303.57 241.836 300.045L241.611 296.408L241.555 299.849C241.527 303.682 240.742 308.298 239.816 310.06C239.536 310.648 239.283 311.403 239.283 311.767C239.283 312.13 238.975 312.83 238.582 313.361C238.217 313.893 237.768 314.564 237.628 314.872C237.263 315.655 234.122 319.096 232.747 320.243C231.064 321.67 230.082 322.118 229.577 321.698C229.269 321.446 229.184 321.474 229.184 321.894C229.184 322.957 228.483 321.698 228.427 320.523C228.399 319.88 228.315 318.593 228.231 317.67C228.034 315.264 227.978 305.164 228.175 304.661C228.259 304.437 228.595 301.415 228.904 297.946C229.521 291.456 230.25 286.392 230.727 285.665C230.811 285.497 231.008 284.378 231.148 283.147C231.316 281.916 231.625 280.573 231.849 280.126C232.074 279.706 232.27 279.174 232.27 278.979C232.27 278.503 233.561 278.559 234.683 279.09ZM239.115 282.224C240.097 283.651 240.041 283.958 238.975 282.951C237.852 281.888 237.432 281.161 237.965 281.161C238.189 281.161 238.694 281.636 239.115 282.224ZM242.509 290.393C242.593 290.533 242.537 290.673 242.397 290.673C242.229 290.673 242.088 290.533 242.088 290.393C242.088 290.225 242.144 290.113 242.201 290.113C242.285 290.113 242.425 290.225 242.509 290.393ZM242.93 291.792C242.93 292.379 242.509 292.547 242.229 292.071C242.032 291.736 242.285 291.232 242.677 291.232C242.818 291.232 242.93 291.484 242.93 291.792ZM243.659 294.869C243.884 296.464 244.332 297.023 244.332 295.68C244.332 294.393 245.034 295.093 245.286 296.604C246.38 303.458 245.819 307.514 243.042 312.41C242.453 313.445 241.948 314.508 241.92 314.76C241.864 315.488 240.77 316.914 238.329 319.404C236.253 321.558 235.636 322.034 235.636 321.502C235.636 321.39 236.478 320.299 237.488 319.068C239.788 316.271 241.415 313.921 242.116 312.41C242.397 311.767 242.902 310.843 243.21 310.396C243.519 309.92 243.771 309.277 243.771 308.941C243.771 308.605 243.968 308.158 244.192 307.906C245.062 307.039 245.483 305.108 244.725 305.416C244.389 305.528 244.332 305.416 244.445 304.913C244.725 303.542 244.922 300.157 244.753 299.625C244.445 298.618 244.052 299.038 244.052 300.38C244.052 302.842 243.547 301.22 243.379 298.226C243.295 296.604 243.154 294.869 243.042 294.365C242.93 293.806 242.986 293.47 243.182 293.47C243.323 293.47 243.547 294.114 243.659 294.869ZM250.756 297.835C251.009 298.73 251.289 299.541 251.402 299.625C251.935 300.017 252.468 302.003 252.468 303.598C252.468 304.577 252.58 305.808 252.748 306.339C252.972 307.179 252.916 307.43 252.327 308.298C251.542 309.417 251.402 310.116 252.047 309.892C252.58 309.668 252.916 310.2 252.496 310.62C252.327 310.788 252.187 311.235 252.187 311.599C252.187 312.97 251.514 314.788 250.7 315.655C250.223 316.159 249.831 316.83 249.831 317.166C249.803 318.145 243.856 324.524 242.958 324.524C242.677 324.524 242.257 324.804 242.032 325.111C241.808 325.475 241.471 325.671 241.219 325.559C240.938 325.475 241.415 324.832 242.846 323.489C243.94 322.454 245.006 321.195 245.202 320.747C245.455 320.104 245.567 320.02 245.651 320.383C245.819 321.083 246.212 320.999 246.745 320.16C247.138 319.572 247.166 319.404 246.857 319.208C246.577 319.04 246.605 318.845 247.025 318.257C247.334 317.865 247.755 317.53 248.007 317.53C248.26 317.53 248.652 317.306 248.877 317.026C249.41 316.439 250.784 313.753 250.784 313.305C250.784 312.662 249.971 313.641 249.354 315.012C249.017 315.767 248.568 316.439 248.344 316.523C247.839 316.718 247.867 316.607 248.652 315.04C249.69 313.054 251.317 304.241 250.756 303.682C250.616 303.542 250.504 302.842 250.504 302.115C250.504 301.388 250.308 299.793 250.083 298.59C249.578 295.96 249.578 295.904 249.999 296.044C250.195 296.128 250.532 296.911 250.756 297.835ZM247.979 314.005C247.979 314.229 247.727 314.676 247.418 315.04C246.941 315.627 246.885 315.655 246.857 315.208C246.857 314.564 247.362 313.613 247.699 313.613C247.867 313.613 247.979 313.781 247.979 314.005ZM246.016 318.341C246.016 318.677 245.455 319.04 245.258 318.845C245.062 318.649 245.426 318.089 245.763 318.089C245.903 318.089 246.016 318.201 246.016 318.341ZM239.003 321.558C239.003 321.642 238.89 321.782 238.722 321.866C238.582 321.95 238.442 321.894 238.442 321.754C238.442 321.586 238.582 321.446 238.722 321.446C238.89 321.446 239.003 321.502 239.003 321.558ZM240.966 324.216C240.966 324.552 239.844 325.363 239.395 325.363C239.199 325.363 239.311 325.055 239.648 324.664C240.265 323.964 240.966 323.74 240.966 324.216ZM217.964 328.189C217.964 328.357 217.851 328.385 217.683 328.301C217.543 328.217 217.403 327.993 217.403 327.853C217.403 327.685 217.543 327.657 217.683 327.741C217.851 327.825 217.964 328.049 217.964 328.189Z" fill="#FBF5F3"/>
<path d="M238.161 284.993C238.161 285.385 239.059 287.931 239.143 287.819C239.283 287.679 238.582 285.133 238.357 284.91C238.245 284.798 238.161 284.826 238.161 284.993Z" fill="#FBF5F3"/>
<path d="M272.497 267.48C271.964 268.096 271.964 268.096 272.609 267.76C272.945 267.592 273.226 267.313 273.226 267.173C273.226 266.753 273.086 266.837 272.497 267.48Z" fill="#FBF5F3"/>
<path d="M274.068 268.04C274.068 268.18 274.208 268.236 274.348 268.152C274.516 268.068 274.629 267.928 274.629 267.844C274.629 267.788 274.516 267.732 274.348 267.732C274.208 267.732 274.068 267.872 274.068 268.04Z" fill="#FBF5F3"/>
<path d="M107.719 274.474C106.289 274.978 106.092 274.978 105.055 274.614C104.073 274.223 103.371 274.223 99.2478 274.586C96.667 274.81 93.7496 275.118 92.7959 275.286C88.027 276.153 83.2862 278.335 80.2847 281.021C78.6016 282.532 76.7501 285.217 76.8062 286.029C76.8062 286.336 76.4135 287.288 75.9086 288.127C74.6743 290.141 73.2156 293.079 73.2156 293.498C73.2156 294.114 74.0291 293.191 74.3377 292.183C74.506 291.652 74.7865 291.232 74.9268 291.232C75.2634 291.232 75.2914 291.008 74.4779 293.61C74.1133 294.813 73.8327 295.876 73.8888 295.932C73.9449 295.96 74.534 294.785 75.1792 293.274C76.7501 289.638 77.5356 288.742 76.3013 291.96C75.6 293.862 74.4779 298.366 74.0291 301.164C73.8047 302.479 73.6644 305.808 73.6644 309.193C73.6925 314.508 73.5242 315.879 73.1034 314.508C72.7948 313.613 72.4021 309.864 72.374 308.102C72.374 306.395 72.0094 305.584 71.7008 306.563C71.6166 306.843 71.5605 307.598 71.5886 308.242C71.6166 308.885 71.5325 309.501 71.4483 309.613C71.3361 309.696 71.3922 309.948 71.5325 310.116C71.9533 310.648 72.2338 313.893 71.841 313.893C71.6727 313.893 71.5325 313.753 71.5325 313.613C71.5325 313.445 71.4203 313.333 71.252 313.333C71.1117 313.333 70.9714 313.557 70.9714 313.837C70.9714 314.424 73.1314 321.894 73.5242 322.621C73.6644 322.901 73.7205 323.265 73.6083 323.433C73.3839 323.796 77.6197 327.881 78.2369 327.881C78.4894 327.881 79.3029 328.077 80.0603 328.301C81.7995 328.832 83.6509 328.832 86.6805 328.301C87.999 328.077 90.6639 327.881 92.5995 327.881C97.8452 327.881 100.398 326.93 104.353 323.545C105.503 322.538 106.569 321.782 106.738 321.81C106.878 321.866 107.215 322.845 107.467 323.992C107.748 325.139 108.224 327.377 108.589 328.972C108.926 330.567 109.487 332.273 109.823 332.749C110.497 333.756 111.507 334.036 111.759 333.28C111.843 333.001 112.264 332.609 112.685 332.441C113.33 332.133 113.47 332.161 113.807 332.637C114.228 333.224 115.686 333.42 115.995 332.917C116.079 332.777 116.752 332.385 117.482 332.077C118.66 331.546 118.828 331.546 119.109 331.938C119.585 332.581 120.062 332.441 120.062 331.686C120.062 330.93 120.483 330.511 120.764 330.958C120.848 331.098 121.128 331.238 121.381 331.238C121.633 331.238 122.11 331.546 122.475 331.938C122.84 332.329 123.26 332.637 123.401 332.637C123.569 332.637 123.934 332.077 124.242 331.378C124.551 330.651 125 330.119 125.224 330.119C125.476 330.119 125.673 329.867 125.673 329.588C125.673 329.28 125.813 328.944 125.953 328.86C126.374 328.608 126.29 326.846 125.701 324.384C125.42 323.153 125.224 321.754 125.308 321.279C125.392 320.775 125.308 320.299 125.14 320.216C124.971 320.104 124.831 319.6 124.831 319.096C124.831 318.565 124.635 318.005 124.41 317.81C124.186 317.614 123.99 317.11 123.99 316.691C123.99 316.271 123.793 315.46 123.541 314.872C123.316 314.285 123.176 313.669 123.26 313.473C123.457 312.97 122.924 309.361 122.587 309.025C122.447 308.885 122.419 308.438 122.475 308.018C122.587 307.542 122.475 307.123 122.222 306.843C121.717 306.339 121.549 305.5 121.858 304.996C121.998 304.745 121.886 304.493 121.577 304.241C121.128 303.905 121.1 303.766 121.381 303.29C121.745 302.702 121.605 301.863 121.128 301.863C120.96 301.863 120.904 301.471 121.016 300.856C121.156 300.241 121.1 299.709 120.904 299.485C120.708 299.261 120.651 298.814 120.764 298.478C120.876 298.114 120.82 297.807 120.623 297.667C120.147 297.387 119.333 290.029 118.94 282.727C118.548 275.09 118.407 274.754 115.63 274.726C115.125 274.726 114.424 274.586 114.115 274.418C113.526 274.111 113.077 274.418 112.657 275.398C112.601 275.566 112.208 275.286 111.787 274.782C110.889 273.719 110.02 273.635 107.719 274.474ZM101.66 281.189C101.744 281.664 101.829 282.839 101.829 283.763C101.829 286.616 102.951 297.191 103.961 304.101C104.858 310.2 104.914 310.704 104.465 311.011C104.101 311.291 104.073 311.459 104.297 311.739C104.662 312.158 104.465 312.494 103.848 312.494C103.54 312.494 103.484 312.242 103.624 311.291L103.792 310.116L102.586 312.13C101.296 314.285 99.9491 315.823 99.3881 315.851C98.8831 315.851 98.9112 315.823 100.061 313.725C100.622 312.69 101.099 311.515 101.127 311.123C101.183 310.732 101.408 309.92 101.66 309.333C101.913 308.745 101.997 308.298 101.829 308.298C101.688 308.298 101.548 308.41 101.548 308.577C101.548 308.717 101.352 308.857 101.099 308.857C100.763 308.857 100.707 308.661 100.819 307.934C101.015 307.039 101.015 307.039 100.398 308.158C98.4904 311.683 94.7875 317.25 93.2727 318.873L91.5055 320.747L90.4675 319.768C88.7003 318.117 87.5782 315.376 86.8208 310.955C86.2878 307.962 86.2317 302.646 86.6805 300.185C87.0452 298.114 88.7283 293.302 90.0468 290.589C91.7579 286.952 95.3205 283.315 99.36 281.021C100.987 280.098 101.436 280.126 101.66 281.189ZM100.426 310.536C100.426 310.676 100.286 310.816 100.117 310.816C99.9772 310.816 99.9211 310.676 100.005 310.536C100.089 310.368 100.23 310.256 100.314 310.256C100.37 310.256 100.426 310.368 100.426 310.536ZM105.195 315.432C105.195 315.655 105.083 315.851 104.942 315.851C104.578 315.851 104.325 315.404 104.55 315.18C104.858 314.872 105.195 315.012 105.195 315.432Z" fill="#FBF5F3"/>
<path d="M413.149 274.474C411.69 274.978 411.494 275.006 410.54 274.614C409.643 274.223 408.997 274.223 404.621 274.586C397.861 275.174 393.962 276.041 390.483 277.804C388.8 278.643 386.051 280.601 384.957 281.776C383.61 283.203 382.068 285.609 382.236 286.057C382.32 286.28 381.955 287.176 381.422 288.071C380.188 290.141 378.701 293.079 378.701 293.498C378.701 294.114 379.515 293.191 379.823 292.183C379.992 291.652 380.272 291.232 380.412 291.232C380.749 291.232 380.805 291.036 379.431 295.205C378.729 297.247 378.112 299.485 378 300.185C377.916 300.884 377.776 301.779 377.691 302.199C377.607 302.646 377.663 302.982 377.804 302.982C377.944 302.982 378.14 302.255 378.252 301.36C378.533 298.982 379.347 296.156 380.665 293.191C382.404 289.218 382.825 288.994 381.507 292.771C379.739 297.779 378.814 304.941 379.122 311.151C379.262 313.781 379.234 315.012 379.01 315.012C378.533 315.012 378.168 313.11 377.972 309.836C377.776 306.311 377.663 305.696 377.299 306.339C376.99 306.871 376.85 309.78 377.102 310.172C377.215 310.34 377.383 311.263 377.467 312.186C377.663 313.893 377.467 314.229 376.794 313.557C376.541 313.305 376.457 313.333 376.457 313.781C376.457 314.424 378.589 321.866 379.01 322.621C379.15 322.901 379.206 323.293 379.094 323.461C378.87 323.824 383.105 327.881 383.751 327.881C383.975 327.881 384.789 328.077 385.546 328.301C387.285 328.832 389.137 328.832 392.166 328.301C393.485 328.077 396.15 327.881 398.085 327.881C400.498 327.881 402.069 327.741 403.135 327.433C404.818 326.93 407.735 325.531 408.016 325.083C408.436 324.384 412.167 321.698 412.364 321.894C412.504 322.034 413.009 324.02 413.486 326.314C414.468 330.93 414.972 332.497 415.646 333.252C416.235 333.896 417.161 333.896 417.301 333.252C417.385 333.001 417.778 332.609 418.17 332.441C418.816 332.133 418.956 332.161 419.292 332.637C419.713 333.224 421.172 333.42 421.481 332.917C421.565 332.777 422.238 332.385 422.967 332.077C424.145 331.546 424.314 331.546 424.594 331.938C425.071 332.581 425.464 332.441 425.66 331.518C425.801 330.763 426.39 330.315 426.39 330.958C426.39 331.098 426.586 331.238 426.838 331.238C427.091 331.238 427.596 331.546 427.961 331.938C428.325 332.329 428.746 332.637 428.886 332.637C429.055 332.637 429.419 332.077 429.728 331.378C430.036 330.651 430.485 330.119 430.71 330.119C430.962 330.119 431.158 329.867 431.158 329.588C431.158 329.28 431.299 328.944 431.439 328.86C431.832 328.608 431.776 326.622 431.299 324.664C431.074 323.74 430.906 322.398 430.878 321.67C430.878 320.943 430.766 320.271 430.597 320.188C430.457 320.104 430.317 319.6 430.317 319.068C430.317 318.537 430.205 318.033 430.036 317.949C429.896 317.865 429.756 317.39 429.756 316.942C429.756 316.495 429.559 315.823 429.335 315.46C429.055 315.068 428.83 313.865 428.746 312.466C428.662 311.179 428.437 309.78 428.213 309.361C428.017 308.969 427.932 308.27 428.017 307.85C428.101 307.374 428.017 306.983 427.736 306.787C427.259 306.423 426.895 305.22 427.259 305.22C427.68 305.22 427.54 304.605 427.035 304.241C426.586 303.905 426.586 303.793 426.951 303.122C427.315 302.451 427.315 302.339 426.838 302.003C426.446 301.723 426.39 301.416 426.53 300.744C426.642 300.213 426.586 299.737 426.39 299.485C426.193 299.261 426.137 298.814 426.249 298.478C426.362 298.114 426.305 297.807 426.137 297.667C425.688 297.415 424.791 289.162 424.426 282.196C424.061 275.118 423.893 274.754 421.004 274.726C420.443 274.726 419.882 274.586 419.797 274.446C419.489 273.943 418.816 274.167 418.535 274.866C418.283 275.51 417.693 275.845 417.693 275.342C417.693 275.202 417.441 274.838 417.132 274.502C416.403 273.719 415.281 273.719 413.149 274.474ZM407.146 281.189C407.23 281.664 407.314 282.895 407.314 283.93C407.314 286.784 408.577 298.562 409.558 304.941C410.4 310.312 410.428 310.676 409.951 311.011C409.586 311.263 409.558 311.459 409.783 311.739C410.148 312.158 409.951 312.494 409.334 312.494C409.025 312.494 408.969 312.242 409.11 311.291L409.278 310.116L408.072 312.13C406.781 314.285 405.435 315.823 404.874 315.851C404.341 315.851 404.397 315.711 405.603 313.669C406.22 312.634 406.697 311.459 406.697 311.095C406.669 310.704 406.865 309.92 407.146 309.333C407.398 308.745 407.483 308.298 407.314 308.298C407.174 308.298 407.034 308.41 407.034 308.577C407.034 308.717 406.837 308.857 406.585 308.857C406.248 308.857 406.192 308.661 406.304 307.934C406.501 307.039 406.501 307.039 405.884 308.158C403.976 311.683 400.273 317.25 398.758 318.873L396.991 320.747L395.953 319.768C392.335 316.355 390.651 305.304 392.643 298.114C393.232 295.932 395.364 290.589 396.15 289.302C398.057 286.141 401.339 283.007 404.846 281.021C406.473 280.098 406.922 280.126 407.146 281.189ZM405.912 310.536C405.912 310.676 405.771 310.816 405.603 310.816C405.463 310.816 405.407 310.676 405.491 310.536C405.575 310.368 405.715 310.256 405.799 310.256C405.856 310.256 405.912 310.368 405.912 310.536ZM410.681 315.432C410.681 315.655 410.568 315.851 410.428 315.851C410.063 315.851 409.811 315.404 410.035 315.18C410.344 314.872 410.681 315.012 410.681 315.432Z" fill="#FBF5F3"/>
<path d="M50.213 274.335C50.213 274.698 51.84 276.265 52.0364 276.097C52.0925 276.013 51.7278 275.51 51.1948 275.006C50.6618 274.474 50.213 274.195 50.213 274.335Z" fill="#FBF5F3"/>
<path d="M53.2987 277.943C53.4951 278.195 53.7195 278.307 53.7756 278.251C53.972 278.055 53.5792 277.524 53.2426 277.524C53.0743 277.524 53.0743 277.692 53.2987 277.943Z" fill="#FBF5F3"/>
<path d="M2.52467 285.077C2.52467 285.217 2.66493 285.357 2.83324 285.357C2.9735 285.357 3.02961 285.217 2.94545 285.077C2.8613 284.91 2.72104 284.798 2.63688 284.798C2.58078 284.798 2.52467 284.91 2.52467 285.077Z" fill="#FBF5F3"/>
<path d="M251.906 288.938C251.906 289.106 252.047 289.33 252.187 289.414C252.355 289.498 252.692 290.113 252.972 290.757C254.123 293.358 254.123 293.358 254.123 292.827C254.151 292.183 252.86 289.442 252.327 288.994C252.047 288.77 251.906 288.742 251.906 288.938Z" fill="#FBF5F3"/>
<path d="M315.304 291.4C315.304 291.624 315.444 291.736 315.584 291.652C315.753 291.568 315.865 291.372 315.865 291.204C315.865 291.064 315.753 290.952 315.584 290.952C315.444 290.952 315.304 291.148 315.304 291.4Z" fill="#FBF5F3"/>
<path d="M315.051 293.386C315.023 293.722 315.164 294.086 315.304 294.17C315.641 294.365 315.641 294.114 315.304 293.33C315.08 292.799 315.051 292.799 315.051 293.386Z" fill="#FBF5F3"/>
<path d="M315.865 294.17C315.865 294.589 315.977 294.841 316.145 294.729C316.314 294.645 316.426 294.393 316.426 294.17C316.426 293.946 316.314 293.694 316.145 293.61C315.977 293.498 315.865 293.75 315.865 294.17Z" fill="#FBF5F3"/>
<path d="M315.865 295.596C315.865 295.82 316.005 295.932 316.145 295.848C316.314 295.764 316.426 295.569 316.426 295.401C316.426 295.261 316.314 295.149 316.145 295.149C316.005 295.149 315.865 295.345 315.865 295.596Z" fill="#FBF5F3"/>
<path d="M73.1314 297.583C72.879 298.31 72.6265 299.485 72.5143 300.185C72.4302 300.884 72.2899 301.779 72.2057 302.199C72.1216 302.646 72.1777 302.982 72.3179 302.982C72.4582 302.982 72.6546 302.255 72.7668 301.36C72.879 300.492 73.1595 299.038 73.3839 298.114C73.9169 296.128 73.7205 295.708 73.1314 297.583Z" fill="#FBF5F3"/>
<path d="M3.92728 297.583C3.92728 297.918 4.06754 298.282 4.2078 298.366C4.57247 298.59 4.57247 297.946 4.2078 297.387C3.98338 297.051 3.92728 297.079 3.92728 297.583Z" fill="#FBF5F3"/>
<path d="M71.841 305.108C71.841 305.416 71.9252 305.5 72.0094 305.276C72.0935 305.08 72.0655 304.829 71.9813 304.745C71.8971 304.633 71.813 304.801 71.841 305.108Z" fill="#FBF5F3"/>
<path d="M377.327 305.108C377.327 305.416 377.411 305.5 377.495 305.276C377.579 305.08 377.551 304.829 377.467 304.745C377.383 304.633 377.299 304.801 377.327 305.108Z" fill="#FBF5F3"/>
<path d="M3.39427 310.732C3.36621 311.375 3.50647 311.991 3.64673 312.074C3.98336 312.27 3.98336 311.263 3.64673 310.256C3.45037 309.669 3.42232 309.724 3.39427 310.732Z" fill="#FBF5F3"/>
<path d="M17.8971 335.071C18.0935 335.155 18.346 335.127 18.4301 335.043C18.5423 334.959 18.374 334.875 18.0655 334.903C17.7569 334.903 17.6727 334.987 17.8971 335.071Z" fill="#FBF5F3"/>
<path d="M188.229 347.38C186.377 348.332 185.536 350.206 185.255 354.095L185.059 356.389L183.628 356.473C182.225 356.557 182.197 356.585 182.113 357.452L182.029 358.375H183.572H185.143V366.04V373.734L183.684 373.818C182.225 373.902 182.197 373.93 182.113 374.797L182.029 375.72H186.517H191.034V374.741V373.762H189.21H187.387L187.443 366.152L187.527 358.515L190.136 358.431L192.745 358.347L192.661 357.452L192.577 356.557L189.94 356.473L187.303 356.389L187.499 354.095C187.836 349.479 188.621 348.499 191.735 348.639L193.418 348.723L193.502 350.066C193.587 351.409 193.615 351.409 194.484 351.325L195.382 351.241V349.143V347.045L192.296 346.961C189.8 346.905 189.014 346.989 188.229 347.38Z" fill="#FBF5F3"/>
<path d="M221.779 348.36C221.134 349.283 221.246 350.15 222.087 350.821C222.873 351.437 223.855 351.409 224.612 350.765C225.117 350.346 225.061 348.723 224.528 348.192C223.855 347.52 222.284 347.632 221.779 348.36Z" fill="#FBF5F3"/>
<path d="M294.153 348.359C293.508 349.283 293.62 350.15 294.461 350.821C295.247 351.437 296.229 351.409 296.986 350.765C297.519 350.318 297.435 348.751 296.846 348.22C296.088 347.52 294.658 347.604 294.153 348.359Z" fill="#FBF5F3"/>
<path d="M116.836 348.611C112.993 349.087 109.403 351.269 107.243 354.402C104.578 358.291 104.185 363.774 106.261 368.167C107.748 371.328 111.843 374.629 115.322 375.413C117.453 375.916 121.212 375.776 123.26 375.161C125.448 374.489 128.618 372.419 128.618 371.664C128.618 370.573 127.805 370.573 126.178 371.636C118.912 376.448 110.104 373.566 107.663 365.537C106.12 360.445 108.196 354.85 112.713 351.969C116.556 349.535 122.11 349.758 126.093 352.5C127.468 353.451 127.973 353.535 128.478 352.92C128.955 352.36 128.534 351.857 126.458 350.514C123.962 348.919 120.287 348.164 116.836 348.611Z" fill="#FBF5F3"/>
<path d="M234.991 351.829C234.879 351.941 234.795 353.004 234.795 354.207V356.389L233.336 356.473C231.906 356.557 231.849 356.585 231.765 357.452L231.681 358.347L233.168 358.431L234.655 358.515L234.795 365.929C234.963 374.238 235.047 374.657 236.843 375.552C237.712 375.972 238.189 376.028 239.508 375.832C240.966 375.608 241.106 375.524 241.106 374.881C241.106 374.349 240.938 374.154 240.405 374.098C237.011 373.734 237.039 373.846 237.039 365.117V358.403L238.946 358.319C240.686 358.235 240.826 358.179 240.91 357.564C241.05 356.668 240.573 356.417 238.666 356.417H237.067L236.983 354.095L236.899 351.801L236.057 351.717C235.58 351.661 235.103 351.717 234.991 351.829Z" fill="#FBF5F3"/>
<path d="M139.783 356.808C137.286 357.62 134.846 359.802 133.724 362.236C132.826 364.138 132.854 368.894 133.724 370.573C134.481 371.971 136.837 374.098 138.577 374.937C140.512 375.86 144.103 375.972 146.207 375.161C148.479 374.321 150.611 372.307 151.621 370.069C152.743 367.635 152.771 364.558 151.705 362.264C150.723 360.137 149.321 358.655 147.217 357.536C145.702 356.724 145.113 356.585 143.205 356.501C141.831 356.445 140.512 356.585 139.783 356.808ZM145.73 358.907C150.779 361.229 151.761 368.586 147.469 372.223C146.319 373.202 144.187 374.042 142.784 374.042C142.364 374.042 141.354 373.846 140.512 373.594C138.464 372.979 136.276 370.796 135.659 368.698C135.126 366.992 135.098 364.838 135.519 363.299C135.912 361.872 137.847 359.83 139.558 359.046C141.354 358.207 144.075 358.151 145.73 358.907Z" fill="#FBF5F3"/>
<path d="M156.726 356.584C156.614 356.696 156.53 357.144 156.53 357.564C156.53 358.291 156.614 358.347 157.876 358.431L159.195 358.515L159.279 366.124L159.335 373.734L158.017 373.818C156.726 373.902 156.67 373.93 156.586 374.825L156.502 375.748L160.373 375.664L164.244 375.58V374.741C164.244 373.93 164.188 373.902 162.926 373.818L161.579 373.734V368.139V362.543L162.982 361.145C166.544 357.592 171.51 357.368 172.744 360.753C173.053 361.592 173.165 363.355 173.193 367.747L173.221 373.622L171.958 373.762C170.78 373.902 170.696 373.958 170.612 374.797L170.528 375.72H174.343H178.158L178.074 374.797C177.99 373.958 177.906 373.902 176.811 373.818L175.661 373.734L175.549 367.383C175.465 361.452 175.409 360.949 174.792 359.55C173.894 357.592 172.407 356.668 169.742 356.473C167.134 356.305 165.366 356.92 163.431 358.683C162.589 359.438 161.86 360.054 161.776 360.054C161.663 360.054 161.579 359.27 161.523 358.291L161.439 356.557L159.195 356.473C157.932 356.445 156.838 356.473 156.726 356.584Z" fill="#FBF5F3"/>
<path d="M202.872 356.92C200.095 357.927 197.906 360.333 197.037 363.355C196.42 365.425 196.644 368.419 197.514 370.293C198.355 372.027 200.319 374.014 202.114 374.881C203.321 375.496 203.91 375.58 206.462 375.58C209.015 375.58 209.576 375.496 210.642 374.937C212.045 374.182 214.597 371.888 214.597 371.384C214.597 371.216 214.289 370.88 213.896 370.685C213.223 370.321 213.111 370.377 212.045 371.468C210.362 373.23 208.931 373.874 206.603 373.874C202.619 373.902 199.758 371.496 199.029 367.551L198.832 366.488L207.051 366.432L215.299 366.348L215.243 364.866C215.074 361.285 213.728 358.991 210.866 357.564C209.268 356.752 208.65 356.585 206.659 356.501C204.919 356.417 203.994 356.529 202.872 356.92ZM209.576 359.158C211.259 360.026 212.522 361.732 212.83 363.495L212.998 364.53H206.042H199.113L199.281 363.607C199.59 362.012 200.908 360.249 202.535 359.27C203.882 358.487 204.302 358.375 206.07 358.375C207.725 358.375 208.342 358.515 209.576 359.158Z" fill="#FBF5F3"/>
<path d="M219.983 356.669C219.759 356.78 219.647 357.2 219.703 357.564C219.787 358.151 219.955 358.235 221.134 358.319L222.452 358.403V366.069V373.734L220.993 373.818C219.535 373.902 219.507 373.93 219.422 374.797L219.338 375.72H223.546H227.782V374.769V373.79L226.323 373.706L224.836 373.622L224.696 365.089L224.556 356.557L222.452 356.473C221.302 356.445 220.18 356.529 219.983 356.669Z" fill="#FBF5F3"/>
<path d="M252.832 356.808C251.177 357.34 249.915 358.179 248.54 359.662C246.633 361.732 246.156 363.047 246.156 366.516C246.156 369.314 246.212 369.538 246.997 370.852C248.148 372.671 250.7 374.685 252.636 375.301C253.786 375.664 254.824 375.748 256.507 375.664C259.144 375.524 260.687 374.825 262.23 373.091C262.678 372.559 263.155 372.195 263.239 372.279C263.324 372.391 263.408 373.202 263.408 374.098V375.72H265.792H268.177V374.741C268.177 373.762 268.177 373.762 266.914 373.762H265.652V365.229V356.696L264.951 356.529C263.688 356.221 263.408 356.529 263.408 358.207C263.408 359.046 263.296 359.802 263.183 359.886C263.071 359.942 262.65 359.606 262.23 359.13C261.837 358.627 260.855 357.871 260.014 357.396C258.779 356.724 258.106 356.585 256.255 356.501C254.88 356.445 253.562 356.585 252.832 356.808ZM258.499 358.767C259.985 359.41 261.865 361.313 262.566 362.935C265.147 368.894 259.845 375.413 253.842 373.678C249.887 372.531 247.502 368.055 248.54 363.746C248.933 362.04 250.953 359.774 252.804 358.935C254.263 358.263 257.096 358.207 258.499 358.767Z" fill="#FBF5F3"/>
<path d="M272.3 356.584C272.188 356.696 272.104 357.144 272.104 357.564C272.104 358.291 272.188 358.347 273.45 358.431L274.769 358.515V366.068V373.622L273.506 373.762C272.328 373.902 272.244 373.958 272.16 374.825L272.076 375.748L275.947 375.664L279.818 375.58V374.741C279.818 373.93 279.762 373.902 278.5 373.818L277.153 373.734V368.139V362.543L278.528 361.201C280.295 359.494 282.118 358.627 284.138 358.571L285.709 358.515L285.849 359.774C285.99 360.949 286.046 361.033 286.915 361.117L287.841 361.201L287.757 358.879L287.673 356.557H285.148C282.175 356.584 280.688 357.116 278.752 358.907C278.079 359.55 277.434 360.054 277.35 360.054C277.265 360.054 277.153 359.27 277.097 358.291L277.013 356.557L274.769 356.473C273.506 356.445 272.412 356.473 272.3 356.584Z" fill="#FBF5F3"/>
<path d="M292.357 356.669C292.133 356.78 292.021 357.2 292.077 357.564C292.161 358.151 292.329 358.235 293.508 358.319L294.826 358.403V366.069V373.734L293.367 373.818C291.909 373.902 291.881 373.93 291.796 374.797L291.712 375.72H295.92H300.156V374.741V373.762H298.613H297.07L297.014 365.145L296.93 356.557L294.826 356.473C293.676 356.445 292.554 356.529 292.357 356.669Z" fill="#FBF5F3"/>
<path d="M310.9 356.808C309.245 357.34 307.982 358.179 306.608 359.662C304.672 361.76 304.223 363.047 304.223 366.516C304.223 369.314 304.279 369.538 305.065 370.852C305.542 371.608 306.664 372.811 307.59 373.566C309.75 375.301 311.517 375.832 314.603 375.664C317.183 375.524 318.782 374.825 320.297 373.091C320.746 372.559 321.223 372.195 321.307 372.279C321.391 372.391 321.475 373.202 321.475 374.098V375.72H323.86H326.244V374.741C326.244 373.762 326.244 373.762 324.982 373.762H323.719V365.229V356.696L323.018 356.529C321.728 356.221 321.475 356.529 321.475 358.375C321.475 359.298 321.391 360.054 321.279 360.054C321.139 360.054 320.718 359.634 320.325 359.13C319.932 358.627 318.923 357.871 318.081 357.396C316.847 356.724 316.174 356.585 314.322 356.501C312.948 356.445 311.629 356.585 310.9 356.808ZM316.566 358.767C317.071 358.99 318.081 359.69 318.754 360.305C322.822 364.054 321.896 370.713 316.987 373.202C311.292 376.112 305.009 370.349 306.608 363.718C307.029 361.984 308.936 359.802 310.816 358.963C312.33 358.263 315.136 358.179 316.566 358.767Z" fill="#FBF5F3"/>
</svg>
