<svg width="64" height="64" viewBox="0 0 64 64" fill="none" xmlns="http://www.w3.org/2000/svg">
<path d="M14.496 6.02245C11.808 6.41285 8.95359 9.35685 7.32799 13.4081C6.70079 14.9633 6.28479 16.5761 6.04159 18.4001C5.88159 19.5713 5.88159 22.0993 6.03519 23.3281C6.34239 25.7089 6.99519 27.9745 7.99359 30.1505C8.19199 30.5921 8.46719 30.8801 8.74879 30.9505C9.04959 31.0273 11.1552 30.9185 12 30.7905C13.5296 30.5473 15.1552 30.0929 16.768 29.4593C18.3232 28.8449 20.4416 27.7505 20.544 27.5009C20.576 27.4241 20.7488 27.0209 20.928 26.5985C21.1008 26.1825 21.248 25.8177 21.248 25.7857C21.248 25.7537 20.9664 25.9137 20.6272 26.1377C19.1104 27.1105 17.216 28.0513 15.6416 28.6081C14.912 28.8641 15.0144 28.7681 15.8336 28.4161C17.5616 27.6865 19.5776 26.4897 21.1584 25.2545C21.7344 24.8065 21.7536 24.7873 22.24 23.9041C23.4496 21.7217 24.9216 19.7377 26.7072 17.8817C27.3536 17.2097 27.456 17.0689 27.5456 16.7617C27.8912 15.5457 27.9552 14.2145 27.7184 13.3441C27.5264 12.6593 27.3088 12.2689 26.8416 11.8017C26.1888 11.1489 25.312 10.8225 24.1856 10.8161C22.8032 10.8161 21.5296 11.2449 19.936 12.2497C19.0656 12.8001 18.4384 12.9281 17.888 12.6785C17.3504 12.4353 17.0368 11.9425 16.8704 11.0721C16.6528 9.98405 16.128 9.22245 15.3024 8.81285C14.9056 8.62085 14.8416 8.60805 14.176 8.60805C13.3952 8.60805 13.0752 8.68485 12.3392 9.05605C11.744 9.35685 11.2704 9.71525 10.5344 10.4257C9.82399 11.1105 9.81759 11.0977 10.4448 10.2593C11.8976 8.30725 13.6832 7.16805 15.2704 7.16805C16.6912 7.16805 17.7856 8.14085 18.08 9.67045C18.336 11.0209 18.8352 11.5841 19.7824 11.5841C20.2816 11.5777 20.7104 11.4177 21.4336 10.9505C22.5152 10.2593 23.6672 9.77925 24.6784 9.60005C24.9536 9.54885 25.4464 9.52965 25.9584 9.54885C26.6368 9.57445 26.8672 9.60645 27.2576 9.74725C28.4352 10.1633 29.2224 11.0401 29.5488 12.2881C29.6896 12.8321 29.6896 14.1697 29.5424 14.8737C29.4848 15.1553 29.4464 15.3921 29.4592 15.3985C29.472 15.4113 30.5408 14.6561 30.7456 14.4897C30.8544 14.3937 30.8608 14.3041 30.8352 13.3249C30.8096 12.3393 30.7904 12.2049 30.6048 11.6481C30.336 10.8289 30.016 10.3041 29.4336 9.72165C28.8832 9.17125 28.1472 8.75525 27.296 8.50565C26.848 8.37125 26.6496 8.35205 25.728 8.35205C24.8384 8.35845 24.576 8.37765 24.064 8.50565C22.9312 8.78725 21.8112 9.28005 20.768 9.95205C20.5248 10.1121 20.2816 10.2401 20.224 10.2401C20.1408 10.2401 20.1408 10.2273 20.2176 10.1825C20.2944 10.1313 20.2176 9.97125 19.8464 9.34405C19.5904 8.91525 19.3664 8.58245 19.3536 8.59525C19.3152 8.63365 19.6224 9.74725 19.7568 10.0673C19.872 10.3425 19.8464 10.4065 19.6544 10.3105C19.4752 10.2081 19.3536 9.95205 19.264 9.49125C19.0144 8.08325 18.2272 6.96965 17.0816 6.40645C16.2816 6.00965 15.4496 5.88165 14.496 6.02245Z" fill="#5F2C14"/>
<path d="M38.9824 12.4224C37.1904 12.6144 34.9568 13.376 32.992 14.4768C29.664 16.3328 26.5728 19.2512 24.3456 22.624C22.3167 25.7024 21.0239 28.8384 20.2303 32.608C19.9999 33.6832 19.7375 35.6416 19.6735 36.7104C19.6095 37.9008 19.6927 38.016 21.2479 38.8096C23.9103 40.1728 27.1168 41.0624 30.752 41.4528C32.2816 41.6128 36.2304 41.6192 37.792 41.4528C43.2576 40.8832 48.1344 39.2768 51.776 36.8448C52.9088 36.0896 53.4912 35.6032 54.56 34.5344C56.2688 32.8192 57.1456 31.3984 57.5872 29.632C57.824 28.6656 57.824 27.4944 57.5808 26.6112C56.9664 24.3584 55.1488 22.6368 52.48 21.7664C51.0528 21.2992 49.12 21.1008 47.424 21.2416C46.9504 21.28 46.4896 21.2928 46.4 21.2672C46.24 21.2224 46.24 21.2224 46.432 21.184L46.624 21.152L46.5984 19.936C46.5856 19.264 46.5536 18.6944 46.5216 18.656C46.4832 18.624 46.464 18.6496 46.464 18.7264C46.464 18.7968 46.3808 19.2064 46.272 19.6352C46.1696 20.0704 46.0608 20.576 46.0416 20.768C45.9968 21.152 45.9456 21.1904 45.7984 20.9792C45.6448 20.7616 45.6768 20.3328 45.8816 19.6864C46.5536 17.5936 46.144 15.6352 44.736 14.2016C44.4352 13.9008 44.0192 13.5424 43.808 13.408C42.5024 12.576 40.8128 12.2368 38.9824 12.4224ZM40.832 14.016C42.72 14.2464 44.0576 15.2896 44.4864 16.864C44.6656 17.5296 44.6336 18.3488 44.3904 19.136C43.9424 20.5824 43.936 21.2288 44.3648 21.8944C44.8064 22.592 45.5104 22.8672 46.72 22.8416C48.7296 22.7904 49.9584 22.816 50.624 22.9376C52.3968 23.2448 53.8688 23.9616 54.8736 24.9856C55.4112 25.5424 55.7504 26.0864 55.9808 26.784C56.128 27.232 56.1536 27.3984 56.1472 28.096C56.1472 29.0496 56.0256 29.5872 55.5904 30.496C55.072 31.5968 54.3232 32.5824 53.1776 33.696C50.5728 36.2176 46.6048 38.144 41.888 39.1936C38.1568 40.0192 34.3552 40.2368 30.624 39.84C29.728 39.744 28.5824 39.5584 28.6272 39.5136C28.6336 39.5008 29.0752 39.5328 29.6064 39.5776C32.4736 39.8464 35.2 39.7312 38.208 39.2256C44.8256 38.1056 50.2016 35.1168 52.4928 31.264C53.5424 29.5104 53.6512 27.6928 52.7872 26.2592C52.0832 25.0944 50.6432 24.1216 48.9536 23.68C47.8592 23.3984 47.2768 23.3472 45.248 23.3728L43.424 23.392L43.008 23.1936C42.4448 22.9248 42.2144 22.72 42.0096 22.2848C41.856 21.9776 41.8304 21.8368 41.8304 21.376C41.8304 20.9216 41.8752 20.6976 42.0864 20.032C42.3104 19.3088 42.336 19.168 42.3296 18.56C42.3296 18.0416 42.2912 17.792 42.1824 17.472C41.6896 16.0384 40.4096 15.1488 38.592 14.9888C37.376 14.88 35.9104 15.104 34.5024 15.616C34.208 15.7248 33.9584 15.8016 33.9392 15.7888C33.856 15.6992 35.8208 14.8288 36.832 14.5088C38.3936 14.0096 39.584 13.8688 40.832 14.016Z" fill="#5F2C14"/>
<path d="M31.0656 13.536C31.0784 13.92 31.0976 14.2464 31.0976 14.2592C31.1104 14.2976 31.616 13.9264 31.616 13.8752C31.616 13.7792 31.232 13.0304 31.1296 12.928C31.04 12.8448 31.0336 12.9088 31.0656 13.536Z" fill="#5F2C14"/>
<path d="M19.36 29.1328C17.056 30.304 14.4832 31.1552 12.3136 31.456C11.936 31.5136 11.2128 31.5776 10.6944 31.6096C9.61923 31.68 9.38883 31.744 9.28003 32C9.14563 32.3264 9.33763 32.832 10.0224 33.984C10.8096 35.3088 11.1424 36.1088 11.4048 37.344C11.5456 38.0288 11.552 38.1312 11.552 41.472V44.896L11.4048 45.216C11.1232 45.824 11.0016 45.9008 9.61283 46.3488C6.95043 47.2 5.56803 48.2496 5.31203 49.6C5.17123 50.3296 5.57443 51.008 6.40003 51.424C7.53282 51.9936 9.34403 52.224 12.6784 52.224C16.7616 52.224 18.7776 51.8464 19.6288 50.9248C19.9552 50.5728 20.0576 50.2272 20.0064 49.6768C19.8656 48.1024 17.9648 46.7328 15.1104 46.144C14.0864 45.9328 13.8496 45.7408 13.664 45.0112C13.5168 44.4224 13.5552 38.1568 13.7088 37.6512C14.0672 36.48 14.752 36.544 15.04 37.7728C15.1232 38.1312 15.1168 39.4688 15.04 41.3568C14.976 42.6944 14.9824 42.8992 15.072 43.072C15.2384 43.392 15.7312 43.424 15.9552 43.1232C16.0832 42.9504 16.0832 42.9184 16 40.4672C15.9424 38.6432 15.936 37.9136 15.9936 37.728C16.1792 37.0368 16.7488 36.5056 17.9008 35.936C18.5664 35.6032 18.624 35.5648 18.6496 35.3728C18.6688 35.2576 18.7392 34.7328 18.816 34.208C19.0528 32.5568 19.4304 30.88 19.9296 29.2928C20.0128 29.024 20.064 28.8 20.0384 28.8064C20.0192 28.8064 19.712 28.9536 19.36 29.1328ZM15.776 47.0656C17.0944 47.3984 18.24 48.064 18.7072 48.768C18.8736 49.0048 18.848 49.3824 18.656 49.568C18.3168 49.9136 17.7856 49.696 17.248 48.9856C16.6592 48.2048 15.8592 47.6096 14.7776 47.1552C14.5024 47.04 14.272 46.9184 14.272 46.8864C14.272 46.8032 15.136 46.9056 15.776 47.0656ZM7.23843 50.8096C8.23043 51.1424 10.4512 51.584 11.1552 51.584C11.2768 51.584 11.3216 51.6096 11.2896 51.6608C11.2192 51.7696 9.34403 51.68 8.41603 51.52C7.48803 51.36 6.63683 51.0976 6.42563 50.8992C6.08003 50.5792 6.43843 50.5408 7.23843 50.8096Z" fill="#5F2C14"/>
<path d="M56.9664 31.8336C56.2752 33.2096 55.5072 34.2784 54.336 35.4816C53.4208 36.416 52.8768 36.8896 51.84 37.632C48.224 40.224 43.3152 41.9136 37.792 42.4768C36.1856 42.6368 32.3712 42.6368 30.848 42.4768C27.296 42.0928 24.4032 41.312 21.6512 39.9936C20.7232 39.5456 20.3968 39.4752 20.1536 39.6672C19.712 40.0192 19.7248 40.8448 20.224 44.352C20.3648 45.3184 20.5248 46.2528 20.5824 46.4192C20.7168 46.8096 21.2608 47.4112 21.7536 47.712C22.4448 48.128 24.3328 48.7808 25.984 49.1712C31.2832 50.432 37.5232 50.2784 43.1616 48.7616C49.0688 47.168 53.6704 44.1856 56.0192 40.4288C56.4928 39.68 56.7552 39.0272 56.9024 38.2464C57.0368 37.5296 57.472 32.4992 57.472 31.648C57.472 31.3536 57.4464 31.0976 57.4144 31.0784C57.3888 31.0592 57.184 31.3984 56.9664 31.8336Z" fill="#5F2C14"/>
<path d="M51.488 48.8896C49.952 49.1392 48.4096 49.8944 47.5008 50.8353C46.2272 52.1665 46.656 53.1521 48.6848 53.5617C49.8112 53.7921 50.592 53.8433 52.704 53.8433C54.816 53.8433 55.5968 53.7921 56.7232 53.5617C58.8352 53.1393 59.2128 52.0769 57.7408 50.6817C56.9344 49.9136 55.9808 49.408 54.656 49.056C54.0672 48.896 53.8496 48.8768 52.896 48.8576C52.3008 48.8512 51.6672 48.864 51.488 48.8896ZM54.2848 49.4336C55.5136 49.6704 56.5696 50.176 57.2672 50.8545C57.7024 51.2897 57.728 51.3281 57.728 51.5969C57.728 51.9553 57.5296 52.1729 57.1968 52.1729C56.8128 52.1729 56.544 51.9745 56.096 51.3601C55.8272 50.9953 55.3984 50.5921 54.9632 50.2976C54.5728 50.0288 53.472 49.472 53.3376 49.472C53.2928 49.472 53.2352 49.44 53.216 49.408C53.1584 49.312 53.728 49.3312 54.2848 49.4336ZM48.3968 52.7937C49.2544 53.0689 49.6576 53.1649 50.592 53.3121C51.0464 53.3889 51.4368 53.4657 51.456 53.4849C51.5072 53.5425 50.0288 53.4401 49.4272 53.3441C48.4096 53.1777 47.616 52.8961 47.616 52.7041C47.616 52.5697 47.7248 52.5825 48.3968 52.7937Z" fill="#5F2C14"/>
<path d="M37.1201 50.7584C33.3377 51.1872 29.5041 53.7536 29.4785 55.872C29.4785 56.224 29.5105 56.3456 29.6513 56.5888C30.1569 57.4592 31.4241 57.9328 34.1121 58.272C35.2001 58.4128 40.0897 58.4768 41.7281 58.3744C45.1009 58.1632 47.0657 57.5424 47.5521 56.544C47.7633 56.1024 47.7185 55.4624 47.4369 54.8992C46.4193 52.9088 43.1873 51.104 39.9873 50.7584C39.2769 50.6752 37.8241 50.6816 37.1201 50.7584ZM40.5761 51.52C42.5729 51.9296 44.6401 52.9152 45.6769 53.952C46.2849 54.56 46.4257 54.7904 46.4513 55.2576C46.4769 55.6992 46.3553 55.968 46.0353 56.1728C45.7985 56.3264 45.1649 56.3264 44.8705 56.1664C44.5313 55.9872 44.0577 55.5072 43.6481 54.9376C42.6817 53.6 41.0817 52.4608 39.0401 51.648C38.6689 51.5008 38.3553 51.3664 38.3361 51.3472C38.2593 51.264 39.9681 51.392 40.5761 51.52ZM32.2241 56.7616C33.6961 57.2416 35.3025 57.5616 37.1713 57.76C37.6449 57.8112 38.0481 57.8688 38.0673 57.888C38.1249 57.9456 35.5137 57.92 34.7841 57.856C33.5297 57.7408 31.7249 57.3376 31.1361 57.0432C30.8929 56.9216 30.5921 56.64 30.5921 56.5376C30.5921 56.3136 30.9953 56.3648 32.2241 56.7616Z" fill="#5F2C14"/>
</svg>
